<svg width="74" height="77" viewBox="0 0 74 77" fill="none" xmlns="http://www.w3.org/2000/svg">
<rect y="8" width="74" height="68" rx="5" fill="white"/>
<path d="M10.68 69.6C8.64 69.6 6.98 69.08 5.7 68.04C4.38 67.04 3.72 65.82 3.72 64.38C3.72 63.18 4.04 62.24 4.68 61.56C5.28 60.88 6.14 60.54 7.26 60.54C8.14 60.54 8.88 60.8 9.48 61.32C10.08 61.84 10.38 62.56 10.38 63.48C10.38 63.96 10.32 64.34 10.2 64.62C10.08 64.9 9.9 65.18 9.66 65.46C9.42 65.78 9.3 66.08 9.3 66.36C9.3 66.76 9.48 67.06 9.84 67.26C10.2 67.5 10.66 67.62 11.22 67.62C13.22 67.62 14.58 66.74 15.3 64.98C16.06 63.26 16.44 60.72 16.44 57.36V22.8C16.44 21.64 16.34 20.84 16.14 20.4C15.98 19.92 15.58 19.6 14.94 19.44C14.34 19.24 13.3 19.14 11.82 19.14V17.4H26.58V19.14C25.06 19.14 24 19.24 23.4 19.44C22.8 19.6 22.4 19.92 22.2 20.4C22.04 20.84 21.96 21.64 21.96 22.8V52.26C21.96 57.78 21.16 62.04 19.56 65.04C17.96 68.08 15 69.6 10.68 69.6Z" fill="black"/>
<path d="M38.2144 23.28H38.0944V52.14C38.0944 53.26 38.3144 54.06 38.7544 54.54C39.2344 55.02 40.0144 55.26 41.0944 55.26H43.4344V57H31.1944V55.26H32.9344C33.8944 55.26 34.5944 55.02 35.0344 54.54C35.5144 54.02 35.7544 53.22 35.7544 52.14V22.56C35.7544 21.52 35.6544 20.78 35.4544 20.34C35.2544 19.9 34.8544 19.6 34.2544 19.44C33.6544 19.28 32.6144 19.18 31.1344 19.14V17.4H41.2144L61.4344 48.12H61.6144V22.02C61.6144 20.1 60.5944 19.14 58.5544 19.14H56.2144V17.4H68.4544V19.14H66.6544C64.8144 19.14 63.8944 20.1 63.8944 22.02V57.36H60.9544L38.2144 23.28Z" fill="#FF2323"/>
</svg>
