<svg width="201" height="103" viewBox="0 0 201 103" fill="none" xmlns="http://www.w3.org/2000/svg">
<path d="M48.75 57.6C43.7167 57.6 39.9333 56.05 37.4 52.95C34.9 49.8167 33.65 45.6833 33.65 40.55C33.65 35.45 34.9 31.3167 37.4 28.15C39.9 24.9833 43.6833 23.4 48.75 23.4C53.85 23.4 57.65 24.9833 60.15 28.15C62.65 31.3167 63.9 35.45 63.9 40.55C63.9 45.6833 62.6333 49.8167 60.1 52.95C57.6 56.05 53.8167 57.6 48.75 57.6ZM48.8 55.9C52.4 55.9 54.9333 54.45 56.4 51.55C57.8667 48.6167 58.6 44.95 58.6 40.55C58.6 35.8833 57.8833 32.15 56.45 29.35C55.0167 26.5167 52.4667 25.1 48.8 25.1C45.1333 25.1 42.5833 26.5167 41.15 29.35C39.7167 32.15 39 35.8833 39 40.55C39 44.95 39.7333 48.6167 41.2 51.55C42.6667 54.45 45.2 55.9 48.8 55.9ZM66.9961 55.55C68.1961 55.55 69.0628 55.4833 69.5961 55.35C70.1294 55.1833 70.4628 54.9167 70.5961 54.55C70.7628 54.1833 70.8461 53.5833 70.8461 52.75V28.3C70.8461 27.4333 70.7628 26.8167 70.5961 26.45C70.4294 26.0833 70.0794 25.8333 69.5461 25.7C69.0461 25.5333 68.1961 25.45 66.9961 25.45V24H80.4461C83.7461 24 86.3294 24.6833 88.1961 26.05C90.0628 27.4167 90.9961 29.45 90.9961 32.15C90.9961 34.4167 90.3461 36.25 89.0461 37.65C87.7794 39.05 86.0628 40 83.8961 40.5V40.6C85.5961 41.1 86.8461 41.9167 87.6461 43.05C88.4794 44.1833 89.0794 45.9167 89.4461 48.25L89.7461 50.1C90.0794 51.9667 90.5461 53.35 91.1461 54.25C91.7461 55.1167 92.6794 55.55 93.9461 55.55V57H87.4461C86.5794 56.2 85.9128 54.6667 85.4461 52.4L84.2461 46.25C83.9128 44.5833 83.2961 43.3833 82.3961 42.65C81.5294 41.8833 80.2294 41.5 78.4961 41.5H75.4461V52.75C75.4461 53.5833 75.5294 54.2 75.6961 54.6C75.8628 54.9667 76.2294 55.2167 76.7961 55.35C77.3628 55.4833 78.2794 55.55 79.5461 55.55V57H66.9961V55.55ZM78.5961 39.7C81.1294 39.7 82.9961 39.15 84.1961 38.05C85.3961 36.9167 85.9961 35.15 85.9961 32.75C85.9961 30.35 85.3794 28.5833 84.1461 27.45C82.9128 26.3167 81.0294 25.75 78.4961 25.75C77.2294 25.75 76.3961 25.9 75.9961 26.2C75.6294 26.4667 75.4461 26.9333 75.4461 27.6V39.7H78.5961ZM166.329 52.8C166.696 53.9667 167.096 54.7167 167.529 55.05C167.996 55.3833 168.829 55.55 170.029 55.55V57H158.579V55.55H160.479C161.446 55.55 161.929 55.1333 161.929 54.3C161.929 53.9667 161.879 53.6333 161.779 53.3L158.629 44.5H147.529L144.379 53.45C144.246 53.9167 144.179 54.25 144.179 54.45C144.179 55.1833 144.646 55.55 145.579 55.55H147.379V57H138.479V55.55C139.346 55.55 140.012 55.4667 140.479 55.3C140.946 55.1 141.312 54.8 141.579 54.4C141.879 53.9667 142.179 53.3167 142.479 52.45L153.079 24H155.879L166.329 52.8ZM158.029 42.8L153.129 29.2H152.979L148.179 42.8H158.029ZM172.953 55.55C174.22 55.55 175.103 55.4833 175.603 55.35C176.136 55.2167 176.47 54.9667 176.603 54.6C176.736 54.2 176.803 53.5167 176.803 52.55V28.45C176.803 27.5167 176.72 26.8667 176.553 26.5C176.42 26.1 176.086 25.8333 175.553 25.7C175.053 25.5333 174.186 25.45 172.953 25.45V24H185.353V25.45C184.086 25.45 183.186 25.5333 182.653 25.7C182.12 25.8333 181.77 26.1 181.603 26.5C181.47 26.8667 181.403 27.5167 181.403 28.45V51.3C181.403 52.5333 181.553 53.4333 181.853 54C182.186 54.5333 182.753 54.8833 183.553 55.05C184.353 55.2167 185.636 55.3 187.403 55.3C189.37 55.3 190.886 55.1167 191.953 54.75C193.02 54.3833 193.853 53.7333 194.453 52.8C195.053 51.8333 195.57 50.3833 196.003 48.45H197.303L196.753 57H172.953V55.55Z" fill="black"/>
<path d="M10.24 92.8C7.52 92.8 5.30667 92.1067 3.6 90.72C1.84 89.3867 0.96 87.76 0.96 85.84C0.96 84.24 1.38667 82.9867 2.24 82.08C3.04 81.1733 4.18667 80.72 5.68 80.72C6.85333 80.72 7.84 81.0667 8.64 81.76C9.44 82.4533 9.84 83.4133 9.84 84.64C9.84 85.28 9.76 85.7867 9.6 86.16C9.44 86.5333 9.2 86.9067 8.88 87.28C8.56 87.7067 8.4 88.1067 8.4 88.48C8.4 89.0133 8.64 89.4133 9.12 89.68C9.6 90 10.2133 90.16 10.96 90.16C13.6267 90.16 15.44 88.9867 16.4 86.64C17.4133 84.3467 17.92 80.96 17.92 76.48V30.4C17.92 28.8533 17.7867 27.7867 17.52 27.2C17.3067 26.56 16.7733 26.1333 15.92 25.92C15.12 25.6533 13.7333 25.52 11.76 25.52V23.2H31.44V25.52C29.4133 25.52 28 25.6533 27.2 25.92C26.4 26.1333 25.8667 26.56 25.6 27.2C25.3867 27.7867 25.28 28.8533 25.28 30.4V69.68C25.28 77.04 24.2133 82.72 22.08 86.72C19.9467 90.7733 16 92.8 10.24 92.8Z" fill="black"/>
<path d="M155.56 68.72H144.112C144.16 70.952 144.556 72.716 145.3 74.012C146.068 75.308 147.412 75.956 149.332 75.956C150.724 75.956 151.828 75.596 152.644 74.876C153.46 74.156 154.06 73.232 154.444 72.104L155.452 72.536C154.948 74 154.168 75.176 153.112 76.064C152.056 76.952 150.484 77.396 148.396 77.396C145.828 77.396 143.908 76.652 142.636 75.164C141.388 73.676 140.764 71.54 140.764 68.756C140.764 65.9 141.412 63.692 142.708 62.132C144.004 60.548 145.912 59.756 148.432 59.756C153.184 59.756 155.56 62.636 155.56 68.396V68.72ZM152.212 67.568C152.212 65.288 151.936 63.608 151.384 62.528C150.832 61.424 149.86 60.872 148.468 60.872C147.052 60.872 145.996 61.436 145.3 62.564C144.604 63.668 144.208 65.336 144.112 67.568H152.212ZM159.371 62.636C159.203 62.036 158.963 61.652 158.651 61.484C158.363 61.292 157.859 61.196 157.139 61.196V60.152H164.195V61.196H163.079C162.599 61.196 162.359 61.412 162.359 61.844C162.359 61.988 162.395 62.168 162.467 62.384L165.563 73.616H165.635L169.415 60.44H171.323L175.427 73.616H175.499L178.415 62.456C178.463 62.312 178.487 62.12 178.487 61.88C178.487 61.64 178.415 61.472 178.271 61.376C178.127 61.256 177.899 61.196 177.587 61.196H176.111V60.152H182.339V61.196C181.475 61.196 180.875 61.316 180.539 61.556C180.227 61.772 179.975 62.252 179.783 62.996L175.607 77H173.627L169.631 64.76H169.523L165.743 77H163.799L159.371 62.636ZM190.801 77.396C190.129 77.396 189.553 77.336 189.073 77.216C188.617 77.096 188.149 76.94 187.669 76.748C187.117 76.532 186.697 76.424 186.409 76.424C186.169 76.424 185.977 76.484 185.833 76.604C185.713 76.7 185.593 76.868 185.473 77.108H184.789L184.429 71.168H185.149C185.605 72.848 186.301 74.12 187.237 74.984C188.173 75.824 189.289 76.244 190.585 76.244C191.641 76.244 192.481 75.992 193.105 75.488C193.753 74.96 194.077 74.228 194.077 73.292C194.077 72.62 193.897 72.068 193.537 71.636C193.177 71.18 192.745 70.82 192.241 70.556C191.737 70.292 190.993 69.968 190.009 69.584L189.109 69.26C187.645 68.66 186.565 68.036 185.869 67.388C185.197 66.716 184.861 65.804 184.861 64.652C184.861 63.14 185.389 61.952 186.445 61.088C187.525 60.2 188.941 59.756 190.693 59.756C191.269 59.756 191.737 59.792 192.097 59.864C192.457 59.936 192.865 60.044 193.321 60.188C193.801 60.332 194.113 60.404 194.257 60.404C194.497 60.404 194.665 60.356 194.761 60.26C194.857 60.14 194.917 60.032 194.941 59.936C194.989 59.84 195.013 59.78 195.013 59.756H195.661L195.913 65.048H195.193C194.545 62.264 193.105 60.872 190.873 60.872C189.889 60.872 189.073 61.112 188.425 61.592C187.801 62.072 187.489 62.696 187.489 63.464C187.489 64.232 187.789 64.88 188.389 65.408C189.013 65.912 189.757 66.32 190.621 66.632L191.593 66.956C193.393 67.58 194.713 68.276 195.553 69.044C196.417 69.812 196.849 70.856 196.849 72.176C196.849 73.736 196.285 74.996 195.157 75.956C194.029 76.916 192.577 77.396 190.801 77.396Z" fill="#FF2323"/>
<path d="M101.64 31.04H101.48V69.52C101.48 71.0133 101.773 72.08 102.36 72.72C103 73.36 104.04 73.68 105.48 73.68H108.6V76H92.28V73.68H94.6C95.88 73.68 96.8133 73.36 97.4 72.72C98.04 72.0267 98.36 70.96 98.36 69.52V30.08C98.36 28.6933 98.2267 27.7067 97.96 27.12C97.6933 26.5333 97.16 26.1333 96.36 25.92C95.56 25.7067 94.1733 25.5733 92.2 25.52V23.2H105.64L132.6 64.16H132.84V29.36C132.84 26.8 131.48 25.52 128.76 25.52H125.64V23.2H141.96V25.52H139.56C137.107 25.52 135.88 26.8 135.88 29.36V76.48H131.96L101.64 31.04Z" fill="#FF2323"/>
</svg>
